{"title":"Water For Elephants 2011 R5 LiNE XViD - DTRG - SAFCuk009","uid":6413421,"size":1199700560,"categoryP":"video","categoryS":"movies","magnet":"?xt=urn:btih:693aa341528697604e52d7b8088f95299e2fa2e9&amp;dn=Water+For+Elephants+2011+R5+LiNE+XViD+-+DTRG+-+SAFCuk009&amp;tr=udp%3A%2F%2Ftracker.openbittorrent.com%3A80&amp;tr=udp%3A%2F%2Fopen.demonii.com%3A1337&amp;tr=udp%3A%2F%2Ftracker.coppersurfer.tk%3A6969&amp;tr=udp%3A%2F%2Fexodus.desync.com%3A6969","seeders":0,"leechers":1,"uploader":"SAFCukO09","files":3,"time":1306078171,"description":"Format : AVI\nFormat/Info : Audio Video Interleave\nFile size : 1.12 GiB\nDuration : 1h 55mn\nOverall bit rate : 1 385 Kbps\nWriting library : VirtualDub build 32839/release\n\nVideo\nID : 0\nFormat : MPEG-4 Visual\nFormat profile : Advanced Simple@L5\nFormat settings, BVOP : 2\nFormat settings, QPel : No\nFormat settings, GMC : No warppoints\nFormat settings, Matrix : Default (H.263)\nMuxing mode : Packed bitstream\nCodec ID : XVID\nCodec ID/Hint : XviD\nDuration : 1h 55mn\nBit rate : 1 248 Kbps\nWidth : 720 pixels\nHeight : 304 pixels\nDisplay aspect ratio : 2.35:1\nFrame rate : 25.000 fps\nColor space : YUV\nChroma subsampling : 4:2:0\nBit depth : 8 bits\nScan type : Progressive\nCompression mode : Lossy\nBits/(Pixel*Frame) : 0.228\nStream size : 1.01 GiB (90%)\nWriting library : XviD 63\n\nAudio\nID : 1\nFormat : MPEG Audio\nFormat version : Version 1\nFormat profile : Layer 3\nCodec ID : 55\nCodec ID/Hint : MP3\nDuration : 1h 55mn\nBit rate mode : Constant\nBit rate : 128 Kbps\nChannel(s) : 2 channels\nSampling rate : 44.1 KHz\nCompression mode : Lossy\nStream size : 106 MiB (9%)\nAlignment : Split accross interleaves\nInterleave, duration : 40 ms (1.00 video frame)\nInterleave, preload duration : 500 ms\n\n\n\n &lt;a href=&quot;\nhttp://www.imdb.com/title/tt1067583/&quot; rel=&quot;nofollow&quot; target=&quot;_NEW&quot;&gt;\nhttp://www.imdb.com/title/tt1067583/&lt;/a&gt;\n\n\n\n\n\n\n\nUsers: 7.0/10 (7,322 votes) 137 reviews | Critics: 155 reviews Metascore: 52/100 (based on 35 reviews from Metacritic.com)\n\nA veterinary student abandons his studies after his parents are killed and joins a traveling circus as their vet.\nDirector:\nFrancis Lawrence\nWriters:\nRichard LaGravenese (screenplay), Sara Gruen (novel)\nStars:\nRobert Pattinson, Reese Witherspoon and Christoph Waltz\n\n\n\n\n\n\n\n\n\n\n\n\n\n\n\n\nSource Used\n\n\nVideo:Vodi Slonam DVD5 ........Thanks\nAudio:IMAGiNE ........................Thanks\n\n\n\nSlight sharpen /contrast brightness touch of saturation .Never used any super duper special filters i tried and tried but my frequency was all wrong...Never tried to upscale the mp3 to super de duper AC3 6 channels across to France neither...........Enjoy !\n\n\nGreetz to IMAGiNE,Flawl3ss,DiLLoN,BDK,NOiR,TOXiCiNK,THC,Ez,Rx,Boobyblue,TaRiQ786,LKRG,CrEwSaDe","torrent":{"xt":"urn:btih:693aa341528697604e52d7b8088f95299e2fa2e9","amp;dn":"Water+For+Elephants+2011+R5+LiNE+XViD+-+DTRG+-+SAFCuk009","amp;tr":["udp%3A%2F%2Ftracker.openbittorrent.com%3A80","udp%3A%2F%2Fopen.demonii.com%3A1337","udp%3A%2F%2Ftracker.coppersurfer.tk%3A6969","udp%3A%2F%2Fexodus.desync.com%3A6969"],"infoHash":"693aa341528697604e52d7b8088f95299e2fa2e9","infoHashBuffer":{"type":"Buffer","data":[105,58,163,65,82,134,151,96,78,82,215,184,8,143,149,41,158,47,162,233]},"announce":[],"urlList":[]}}